<svg width="1512" height="171" viewBox="0 0 1512 171" fill="none" xmlns="http://www.w3.org/2000/svg">
<path d="M104.27 167.145L21.033 38.5263H20.5855L20.8092 65.3685V167.145H0V10.5658H27.9694L111.206 138.961H111.654L111.43 112.118V10.5658H132.015V167.145H104.27Z" fill="#F2F3F4"/>
<path d="M206.334 170.5C176.127 170.5 155.094 152.158 155.094 118.829C155.094 79.4605 184.182 40.7632 228.485 40.7632C258.692 40.7632 279.725 59.1053 279.725 92.4342C279.725 132.25 250.413 170.5 206.334 170.5ZM175.903 121.289C175.903 142.987 189.328 153.053 207.229 153.053C240.792 153.053 258.916 118.605 258.916 89.9737C258.916 68.2763 245.491 58.2106 227.59 58.2106C194.251 58.2106 175.903 92.6579 175.903 121.289Z" fill="#F2F3F4"/>
<path d="M352.753 170.5C316.505 170.5 292.339 144.776 292.339 105.632C292.339 66.0395 316.952 40.7632 352.306 40.7632C385.422 40.7632 410.706 62.6842 410.706 99.1447V112.342H313.596C315.162 135.382 329.259 153.053 352.753 153.053C369.759 153.053 382.96 143.882 387.883 129.342H409.587C404.441 153.5 382.065 170.5 352.753 170.5ZM314.044 95.1184H389.673C389.673 73.1973 375.8 58.2106 352.977 58.2106C329.259 58.2106 316.729 74.3158 314.044 95.1184ZM313.596 3.75359H389.673L389.673 21.079H313.596V3.75359Z" fill="#F2F3F4"/>
<path d="M433.296 167.145V44.1184H452.987V65.8158H453.434C459.252 53.5132 471.111 40.7632 491.025 40.7632C509.373 40.7632 522.575 51.5 527.721 69.1711H528.168C534.434 52.6184 547.411 40.7632 567.326 40.7632C592.386 40.7632 607.378 59.7763 607.378 89.3026V167.145H587.24V91.3158C587.24 68.5 576.723 58.6579 561.955 58.6579C544.95 58.6579 530.406 71.8552 530.406 97.3553V167.145H510.268V91.3158C510.268 68.5 499.752 58.6579 484.984 58.6579C467.978 58.6579 453.434 72.0789 453.434 97.5789V167.145H433.296Z" fill="#F2F3F4"/>
<path d="M635.2 167.145V44.1184H655.338V167.145H635.2ZM634.977 21.079V0.5H655.562V21.079H634.977Z" fill="#F2F3F4"/>
<path d="M739.299 170.5C703.05 170.5 678.885 144.776 678.885 105.632C678.885 66.0395 703.498 40.7632 738.851 40.7632C771.967 40.7632 797.251 62.6842 797.251 99.1447V112.342H700.142C701.708 135.382 715.805 153.053 739.299 153.053C756.304 153.053 769.506 143.882 774.428 129.342H796.133C790.986 153.5 768.611 170.5 739.299 170.5ZM700.589 95.1184H776.218C776.218 73.1973 762.346 58.2106 739.523 58.2106C715.805 58.2106 703.274 74.3158 700.589 95.1184Z" fill="#F2F3F4"/>
<path d="M873.387 167.145V10.5658H894.197V79.2369H973.63V10.5658H994.439V167.145H973.63V97.8026H894.197V167.145H873.387Z" fill="#F2F3F4"/>
<path d="M1078.86 170.5C1042.62 170.5 1018.45 144.776 1018.45 105.632C1018.45 66.0395 1043.06 40.7632 1078.42 40.7632C1111.53 40.7632 1136.82 62.6842 1136.82 99.1447V112.342H1039.71C1041.27 135.382 1055.37 153.053 1078.86 153.053C1095.87 153.053 1109.07 143.882 1113.99 129.342H1135.7C1130.55 153.5 1108.18 170.5 1078.86 170.5ZM1040.15 95.1184H1115.78C1115.78 73.1973 1101.91 58.2106 1079.09 58.2106C1055.37 58.2106 1042.84 74.3158 1040.15 95.1184Z" fill="#F2F3F4"/>
<path d="M1200.8 170.5C1174.18 170.5 1158.29 151.934 1158.29 117.934V44.1184H1178.43V115.921C1178.43 142.987 1190.06 152.605 1206.17 152.605C1224.3 152.605 1240.63 140.526 1240.63 110.776V44.1184H1260.77V167.145H1241.08V144.105H1240.63C1233.47 161.553 1219.15 170.5 1200.8 170.5Z" fill="#F2F3F4"/>
<path d="M1280.61 167.145V151.487L1352.44 62.0132V61.7895H1285.09V44.1184H1379.73V59.7763L1308.13 149.25V149.474H1384.66V167.145H1280.61Z" fill="#F2F3F4"/>
<path d="M1454.05 170.5C1417.8 170.5 1393.63 144.776 1393.63 105.632C1393.63 66.0395 1418.25 40.7632 1453.6 40.7632C1486.72 40.7632 1512 62.6842 1512 99.1447V112.342H1414.89C1416.46 135.382 1430.55 153.053 1454.05 153.053C1471.05 153.053 1484.25 143.882 1489.18 129.342H1510.88C1505.73 153.5 1483.36 170.5 1454.05 170.5ZM1415.34 95.1184H1490.97C1490.97 73.1973 1477.09 58.2106 1454.27 58.2106C1430.55 58.2106 1418.02 74.3158 1415.34 95.1184Z" fill="#F2F3F4"/>
<path d="M1491.41 3.75359H1415.34L1415.34 21.1541H1491.41L1491.41 3.75359Z" fill="#F2F3F4"/>
<path d="M104.27 167.145L21.033 38.5263H20.5855L20.8092 65.3685V167.145H0V10.5658H27.9694L111.206 138.961H111.654L111.43 112.118V10.5658H132.015V167.145H104.27Z" stroke="#F2F3F4"/>
<path d="M206.334 170.5C176.127 170.5 155.094 152.158 155.094 118.829C155.094 79.4605 184.182 40.7632 228.485 40.7632C258.692 40.7632 279.725 59.1053 279.725 92.4342C279.725 132.25 250.413 170.5 206.334 170.5ZM175.903 121.289C175.903 142.987 189.328 153.053 207.229 153.053C240.792 153.053 258.916 118.605 258.916 89.9737C258.916 68.2763 245.491 58.2106 227.59 58.2106C194.251 58.2106 175.903 92.6579 175.903 121.289Z" stroke="#F2F3F4"/>
<path d="M352.753 170.5C316.505 170.5 292.339 144.776 292.339 105.632C292.339 66.0395 316.952 40.7632 352.306 40.7632C385.422 40.7632 410.706 62.6842 410.706 99.1447V112.342H313.596C315.162 135.382 329.259 153.053 352.753 153.053C369.759 153.053 382.96 143.882 387.883 129.342H409.587C404.441 153.5 382.065 170.5 352.753 170.5ZM314.044 95.1184H389.673C389.673 73.1973 375.8 58.2106 352.977 58.2106C329.259 58.2106 316.729 74.3158 314.044 95.1184ZM313.596 3.75359H389.673L389.673 21.079H313.596V3.75359Z" stroke="#F2F3F4"/>
<path d="M433.296 167.145V44.1184H452.987V65.8158H453.434C459.252 53.5132 471.111 40.7632 491.025 40.7632C509.373 40.7632 522.575 51.5 527.721 69.1711H528.168C534.434 52.6184 547.411 40.7632 567.326 40.7632C592.386 40.7632 607.378 59.7763 607.378 89.3026V167.145H587.24V91.3158C587.24 68.5 576.723 58.6579 561.955 58.6579C544.95 58.6579 530.406 71.8552 530.406 97.3553V167.145H510.268V91.3158C510.268 68.5 499.752 58.6579 484.984 58.6579C467.978 58.6579 453.434 72.0789 453.434 97.5789V167.145H433.296Z" stroke="#F2F3F4"/>
<path d="M635.2 167.145V44.1184H655.338V167.145H635.2ZM634.977 21.079V0.5H655.562V21.079H634.977Z" stroke="#F2F3F4"/>
<path d="M739.299 170.5C703.05 170.5 678.885 144.776 678.885 105.632C678.885 66.0395 703.498 40.7632 738.851 40.7632C771.967 40.7632 797.251 62.6842 797.251 99.1447V112.342H700.142C701.708 135.382 715.805 153.053 739.299 153.053C756.304 153.053 769.506 143.882 774.428 129.342H796.133C790.986 153.5 768.611 170.5 739.299 170.5ZM700.589 95.1184H776.218C776.218 73.1973 762.346 58.2106 739.523 58.2106C715.805 58.2106 703.274 74.3158 700.589 95.1184Z" stroke="#F2F3F4"/>
<path d="M873.387 167.145V10.5658H894.197V79.2369H973.63V10.5658H994.439V167.145H973.63V97.8026H894.197V167.145H873.387Z" stroke="#F2F3F4"/>
<path d="M1078.86 170.5C1042.62 170.5 1018.45 144.776 1018.45 105.632C1018.45 66.0395 1043.06 40.7632 1078.42 40.7632C1111.53 40.7632 1136.82 62.6842 1136.82 99.1447V112.342H1039.71C1041.27 135.382 1055.37 153.053 1078.86 153.053C1095.87 153.053 1109.07 143.882 1113.99 129.342H1135.7C1130.55 153.5 1108.18 170.5 1078.86 170.5ZM1040.15 95.1184H1115.78C1115.78 73.1973 1101.91 58.2106 1079.09 58.2106C1055.37 58.2106 1042.84 74.3158 1040.15 95.1184Z" stroke="#F2F3F4"/>
<path d="M1200.8 170.5C1174.18 170.5 1158.29 151.934 1158.29 117.934V44.1184H1178.43V115.921C1178.43 142.987 1190.06 152.605 1206.17 152.605C1224.3 152.605 1240.63 140.526 1240.63 110.776V44.1184H1260.77V167.145H1241.08V144.105H1240.63C1233.47 161.553 1219.15 170.5 1200.8 170.5Z" stroke="#F2F3F4"/>
<path d="M1280.61 167.145V151.487L1352.44 62.0132V61.7895H1285.09V44.1184H1379.73V59.7763L1308.13 149.25V149.474H1384.66V167.145H1280.61Z" stroke="#F2F3F4"/>
<path d="M1454.05 170.5C1417.8 170.5 1393.63 144.776 1393.63 105.632C1393.63 66.0395 1418.25 40.7632 1453.6 40.7632C1486.72 40.7632 1512 62.6842 1512 99.1447V112.342H1414.89C1416.46 135.382 1430.55 153.053 1454.05 153.053C1471.05 153.053 1484.25 143.882 1489.18 129.342H1510.88C1505.73 153.5 1483.36 170.5 1454.05 170.5ZM1415.34 95.1184H1490.97C1490.97 73.1973 1477.09 58.2106 1454.27 58.2106C1430.55 58.2106 1418.02 74.3158 1415.34 95.1184Z" stroke="#F2F3F4"/>
<path d="M1491.41 3.75359H1415.34L1415.34 21.1541H1491.41L1491.41 3.75359Z" stroke="#F2F3F4"/>
</svg>
