<svg width="356" height="40" viewBox="0 0 356 40" fill="none" xmlns="http://www.w3.org/2000/svg">
<path d="M24.5503 39.2105L4.95221 8.94737H4.84684L4.89952 15.2632V39.2105H0V2.36842H6.58538L26.1835 32.5789H26.2888L26.2362 26.2632V2.36842H31.083V39.2105H24.5503Z" fill="#0D26E3"/>
<path d="M48.5812 40C41.469 40 36.5168 35.6842 36.5168 27.8421C36.5168 18.5789 43.3656 9.47369 53.7968 9.47369C60.909 9.47369 65.8612 13.7895 65.8612 21.6316C65.8612 31 58.9598 40 48.5812 40ZM41.4163 28.4211C41.4163 33.5263 44.5773 35.8947 48.7919 35.8947C56.6944 35.8947 60.9617 27.7895 60.9617 21.0526C60.9617 15.9474 57.8007 13.579 53.5861 13.579C45.7363 13.579 41.4163 21.6842 41.4163 28.4211Z" fill="#0D26E3"/>
<path d="M83.0557 40C74.521 40 68.8312 33.9474 68.8312 24.7368C68.8312 15.421 74.6264 9.47369 82.9503 9.47369C90.7474 9.47369 96.7006 14.6316 96.7006 23.2105V26.3158H73.8361C74.2049 31.7368 77.5239 35.8947 83.0557 35.8947C87.0596 35.8947 90.1679 33.7368 91.3269 30.3158H96.4372C95.2254 36 89.9571 40 83.0557 40ZM73.9415 22.2632H91.7484C91.7484 17.1053 88.482 13.579 83.1083 13.579C77.5239 13.579 74.5737 17.3684 73.9415 22.2632ZM73.8361 0.76555H91.7484L91.7484 4.84211H73.8361L73.8361 0.76555Z" fill="#0D26E3"/>
<path d="M102.02 39.2105V10.2632H106.656V15.3684H106.761C108.131 12.4737 110.923 9.47369 115.612 9.47369C119.932 9.47369 123.04 12 124.252 16.1579H124.357C125.832 12.2632 128.888 9.47369 133.577 9.47369C139.477 9.47369 143.007 13.9474 143.007 20.8947V39.2105H138.265V21.3684C138.265 16 135.789 13.6842 132.312 13.6842C128.308 13.6842 124.884 16.7895 124.884 22.7895V39.2105H120.142V21.3684C120.142 16 117.666 13.6842 114.189 13.6842C110.185 13.6842 106.761 16.8421 106.761 22.8421V39.2105H102.02Z" fill="#0D26E3"/>
<path d="M149.558 39.2105V10.2632H154.299V39.2105H149.558ZM149.505 4.84211V0H154.352V4.84211H149.505Z" fill="#0D26E3"/>
<path d="M174.068 40C165.533 40 159.843 33.9474 159.843 24.7368C159.843 15.421 165.638 9.47369 173.962 9.47369C181.759 9.47369 187.713 14.6316 187.713 23.2105V26.3158H164.848C165.217 31.7368 168.536 35.8947 174.068 35.8947C178.072 35.8947 181.18 33.7368 182.339 30.3158H187.449C186.237 36 180.969 40 174.068 40ZM164.954 22.2632H182.76C182.76 17.1053 179.494 13.579 174.12 13.579C168.536 13.579 165.586 17.3684 164.954 22.2632Z" fill="#0D26E3"/>
<path d="M205.639 39.2105V2.36842H210.538V18.5263H229.241V2.36842H234.14V39.2105H229.241V22.8947H210.538V39.2105H205.639Z" fill="#0D26E3"/>
<path d="M254.018 40C245.484 40 239.794 33.9474 239.794 24.7368C239.794 15.421 245.589 9.47369 253.913 9.47369C261.71 9.47369 267.663 14.6316 267.663 23.2105V26.3158H244.799C245.168 31.7368 248.487 35.8947 254.018 35.8947C258.022 35.8947 261.131 33.7368 262.29 30.3158H267.4C266.188 36 260.92 40 254.018 40ZM244.904 22.2632H262.711C262.711 17.1053 259.445 13.579 254.071 13.579C248.487 13.579 245.536 17.3684 244.904 22.2632Z" fill="#0D26E3"/>
<path d="M282.729 40C276.459 40 272.719 35.6316 272.719 27.6316V10.2632H277.46V27.1579C277.46 33.5263 280.2 35.7895 283.993 35.7895C288.26 35.7895 292.106 32.9474 292.106 25.9474V10.2632H296.848V39.2105H292.212V33.7895H292.106C290.42 37.8947 287.049 40 282.729 40Z" fill="#0D26E3"/>
<path d="M301.52 39.2105V35.5263L318.431 14.4737V14.4211H302.573V10.2632H324.858V13.9474L308 35V35.0526H326.017V39.2105H301.52Z" fill="#0D26E3"/>
<path d="M342.355 40C333.82 40 328.131 33.9474 328.131 24.7368C328.131 15.421 333.926 9.47369 342.25 9.47369C350.047 9.47369 356 14.6316 356 23.2105V26.3158H333.136C333.504 31.7368 336.823 35.8947 342.355 35.8947C346.359 35.8947 349.467 33.7368 350.626 30.3158H355.737C354.525 36 349.257 40 342.355 40ZM333.241 22.2632H351.048C351.048 17.1053 347.781 13.579 342.408 13.579C336.823 13.579 333.873 17.3684 333.241 22.2632Z" fill="#0D26E3"/>
<path d="M351.153 0.76555H333.241L333.241 4.85978H351.153V0.76555Z" fill="#0D26E3"/>
<path d="M24.5503 39.2105L4.95221 8.94737H4.84684L4.89952 15.2632V39.2105H0V2.36842H6.58538L26.1835 32.5789H26.2888L26.2362 26.2632V2.36842H31.083V39.2105H24.5503Z" stroke="#0D26E3"/>
<path d="M48.5812 40C41.469 40 36.5168 35.6842 36.5168 27.8421C36.5168 18.5789 43.3656 9.47369 53.7968 9.47369C60.909 9.47369 65.8612 13.7895 65.8612 21.6316C65.8612 31 58.9598 40 48.5812 40ZM41.4163 28.4211C41.4163 33.5263 44.5773 35.8947 48.7919 35.8947C56.6944 35.8947 60.9617 27.7895 60.9617 21.0526C60.9617 15.9474 57.8007 13.579 53.5861 13.579C45.7363 13.579 41.4163 21.6842 41.4163 28.4211Z" stroke="#0D26E3"/>
<path d="M83.0557 40C74.521 40 68.8312 33.9474 68.8312 24.7368C68.8312 15.421 74.6264 9.47369 82.9503 9.47369C90.7474 9.47369 96.7006 14.6316 96.7006 23.2105V26.3158H73.8361C74.2049 31.7368 77.5239 35.8947 83.0557 35.8947C87.0596 35.8947 90.1679 33.7368 91.3269 30.3158H96.4372C95.2254 36 89.9571 40 83.0557 40ZM73.9415 22.2632H91.7484C91.7484 17.1053 88.482 13.579 83.1083 13.579C77.5239 13.579 74.5737 17.3684 73.9415 22.2632ZM73.8361 0.76555H91.7484L91.7484 4.84211H73.8361L73.8361 0.76555Z" stroke="#0D26E3"/>
<path d="M102.02 39.2105V10.2632H106.656V15.3684H106.761C108.131 12.4737 110.923 9.47369 115.612 9.47369C119.932 9.47369 123.04 12 124.252 16.1579H124.357C125.832 12.2632 128.888 9.47369 133.577 9.47369C139.477 9.47369 143.007 13.9474 143.007 20.8947V39.2105H138.265V21.3684C138.265 16 135.789 13.6842 132.312 13.6842C128.308 13.6842 124.884 16.7895 124.884 22.7895V39.2105H120.142V21.3684C120.142 16 117.666 13.6842 114.189 13.6842C110.185 13.6842 106.761 16.8421 106.761 22.8421V39.2105H102.02Z" stroke="#0D26E3"/>
<path d="M149.558 39.2105V10.2632H154.299V39.2105H149.558ZM149.505 4.84211V0H154.352V4.84211H149.505Z" stroke="#0D26E3"/>
<path d="M174.068 40C165.533 40 159.843 33.9474 159.843 24.7368C159.843 15.421 165.638 9.47369 173.962 9.47369C181.759 9.47369 187.713 14.6316 187.713 23.2105V26.3158H164.848C165.217 31.7368 168.536 35.8947 174.068 35.8947C178.072 35.8947 181.18 33.7368 182.339 30.3158H187.449C186.237 36 180.969 40 174.068 40ZM164.954 22.2632H182.76C182.76 17.1053 179.494 13.579 174.12 13.579C168.536 13.579 165.586 17.3684 164.954 22.2632Z" stroke="#0D26E3"/>
<path d="M205.639 39.2105V2.36842H210.538V18.5263H229.241V2.36842H234.14V39.2105H229.241V22.8947H210.538V39.2105H205.639Z" stroke="#0D26E3"/>
<path d="M254.018 40C245.484 40 239.794 33.9474 239.794 24.7368C239.794 15.421 245.589 9.47369 253.913 9.47369C261.71 9.47369 267.663 14.6316 267.663 23.2105V26.3158H244.799C245.168 31.7368 248.487 35.8947 254.018 35.8947C258.022 35.8947 261.131 33.7368 262.29 30.3158H267.4C266.188 36 260.92 40 254.018 40ZM244.904 22.2632H262.711C262.711 17.1053 259.445 13.579 254.071 13.579C248.487 13.579 245.536 17.3684 244.904 22.2632Z" stroke="#0D26E3"/>
<path d="M282.729 40C276.459 40 272.719 35.6316 272.719 27.6316V10.2632H277.46V27.1579C277.46 33.5263 280.2 35.7895 283.993 35.7895C288.26 35.7895 292.106 32.9474 292.106 25.9474V10.2632H296.848V39.2105H292.212V33.7895H292.106C290.42 37.8947 287.049 40 282.729 40Z" stroke="#0D26E3"/>
<path d="M301.52 39.2105V35.5263L318.431 14.4737V14.4211H302.573V10.2632H324.858V13.9474L308 35V35.0526H326.017V39.2105H301.52Z" stroke="#0D26E3"/>
<path d="M342.355 40C333.82 40 328.131 33.9474 328.131 24.7368C328.131 15.421 333.926 9.47369 342.25 9.47369C350.047 9.47369 356 14.6316 356 23.2105V26.3158H333.136C333.504 31.7368 336.823 35.8947 342.355 35.8947C346.359 35.8947 349.467 33.7368 350.626 30.3158H355.737C354.525 36 349.257 40 342.355 40ZM333.241 22.2632H351.048C351.048 17.1053 347.781 13.579 342.408 13.579C336.823 13.579 333.873 17.3684 333.241 22.2632Z" stroke="#0D26E3"/>
<path d="M351.153 0.76555H333.241L333.241 4.85978H351.153V0.76555Z" stroke="#0D26E3"/>
</svg>
